# Blender 3.3.1
# www.blender.org
mtllib board.mtl
o Body.001
v 0.499589 1.697010 -0.229110
v 0.497790 1.553030 -0.228688
v -0.499589 1.697013 -0.229110
v -0.497790 1.553031 -0.228688
v 0.501335 0.800000 -0.393856
v -0.501335 0.800000 -0.393856
v 0.501335 0.800000 -0.050993
v -0.501335 0.800000 -0.050993
vn -0.0000 -0.0029 -1.0000
vn -0.0000 1.0000 -0.0000
vt 1.000000 1.000000
vt 1.000000 0.856020
vt 0.000000 1.000000
vt 0.000000 0.856020
vt 1.000000 -0.000000
vt 0.000000 0.000000
vt 1.000000 0.342770
vt -0.000000 0.342771
s 0
usemtl マテリアル.001
f 4/4/1 1/1/1 2/2/1
f 4/4/1 3/3/1 1/1/1
usemtl マテリアル
f 6/6/2 7/7/2 5/5/2
f 6/6/2 8/8/2 7/7/2
