# Blender 3.3.0
# www.blender.org
mtllib stick_rim.mtl
o StickRim
v -0.011039 0.802127 -0.233349
v -0.020398 0.802127 -0.239602
v -0.026651 0.802127 -0.248961
v -0.028847 0.802127 -0.260000
v -0.026651 0.802127 -0.271040
v -0.020398 0.802127 -0.280399
v -0.011039 0.802127 -0.286652
v -0.000000 0.802127 -0.288848
v 0.011039 0.802127 -0.286652
v 0.020398 0.802127 -0.280399
v 0.026651 0.802127 -0.271040
v 0.028847 0.802127 -0.260000
v 0.026651 0.802127 -0.248961
v 0.020398 0.802127 -0.239602
v 0.011039 0.802127 -0.233349
v -0.000000 0.802127 -0.231153
v -0.011039 0.743989 -0.233349
v -0.020398 0.743989 -0.239602
v -0.026651 0.743989 -0.248961
v -0.028847 0.743989 -0.260000
v -0.026651 0.743989 -0.271040
v -0.020398 0.743989 -0.280399
v -0.011039 0.743989 -0.286652
v -0.000000 0.743989 -0.288848
v 0.011039 0.743989 -0.286652
v 0.020398 0.743989 -0.280399
v 0.026651 0.743989 -0.271040
v 0.028847 0.743989 -0.260000
v 0.026651 0.743989 -0.248961
v 0.020398 0.743989 -0.239602
v 0.011039 0.743989 -0.233349
v -0.000000 0.743989 -0.231153
v -0.019051 0.803548 -0.240949
v -0.010310 0.803548 -0.235109
v -0.024892 0.803548 -0.249690
v -0.026942 0.803548 -0.260000
v -0.024892 0.803548 -0.270311
v -0.019051 0.803548 -0.279052
v -0.010310 0.803548 -0.284892
v -0.000000 0.803548 -0.286943
v 0.010310 0.803548 -0.284892
v 0.019051 0.803548 -0.279052
v 0.024892 0.803548 -0.270311
v 0.026942 0.803548 -0.260000
v 0.024892 0.803548 -0.249690
v 0.019051 0.803548 -0.240949
v 0.010310 0.803548 -0.235109
v -0.000000 0.803548 -0.233058
vn -0.8353 0.4274 -0.3460
vn -0.2473 0.9369 -0.2472
vn -0.6393 0.4274 -0.6393
vn 0.8353 0.4273 -0.3460
vn 0.7071 -0.0000 -0.7071
vn 0.6393 0.4274 -0.6393
vn -0.3460 0.4274 -0.8353
vn -0.7071 -0.0000 -0.7071
vn -0.0000 0.4274 0.9041
vn 0.3827 -0.0000 0.9239
vn 0.3460 0.4274 0.8353
vn -0.8353 0.4274 0.3460
vn -0.7071 -0.0000 0.7071
vn -0.6393 0.4273 0.6393
vn 0.8353 0.4274 0.3460
vn 1.0000 -0.0000 -0.0000
vn 0.9041 0.4274 -0.0000
vn 0.3460 0.4274 -0.8353
vn -0.0000 -0.0000 -1.0000
vn -0.0000 0.4274 -0.9041
vn 0.7071 -0.0000 0.7071
vn 0.6393 0.4274 0.6393
vn -1.0000 -0.0000 -0.0000
vn -0.9041 0.4274 -0.0000
vn -0.3460 0.4274 0.8353
vn -0.0000 -0.0000 1.0000
vn -0.3827 -0.0000 -0.9239
vn 0.3827 -0.0000 -0.9239
vn -0.9239 -0.0000 0.3827
vn -0.9239 -0.0000 -0.3827
vn -0.3827 -0.0000 0.9239
vn 0.9239 -0.0000 -0.3827
vn 0.9239 -0.0000 0.3827
vn 0.3231 0.9369 -0.1338
vn -0.1338 0.9369 -0.3230
vn -0.3230 0.9369 0.1338
vn 0.3230 0.9369 0.1338
vn 0.2473 0.9369 0.2472
vn 0.1338 0.9369 0.3230
vn -0.0000 0.9369 -0.3497
vn -0.0000 0.9369 0.3497
vn 0.1338 0.9369 -0.3230
vn -0.1338 0.9369 0.3230
vn -0.2473 0.9369 0.2472
vn 0.2472 0.9369 -0.2472
vn -0.3497 0.9369 -0.0000
vn 0.3497 0.9369 -0.0000
vn -0.3230 0.9369 -0.1338
vt 0.687500 0.500000
vt 0.625000 0.500000
vt 0.562500 0.500000
vt 0.500000 0.500000
vt 0.437500 0.500000
vt 0.375000 0.500000
vt 0.312500 0.500000
vt 0.250000 0.500000
vt 0.187500 0.500000
vt 0.125000 0.500000
vt 0.062500 0.500000
vt 0.000000 0.500000
vt 1.000000 0.500000
vt 0.937500 0.500000
vt 0.875000 0.500000
vt 0.812500 0.500000
vt 0.750000 0.500000
vt 0.687500 0.500000
vt 0.625000 0.500000
vt 0.562500 0.500000
vt 0.500000 0.500000
vt 0.437500 0.500000
vt 0.375000 0.500000
vt 0.312500 0.500000
vt 0.250000 0.500000
vt 0.187500 0.500000
vt 0.125000 0.500000
vt 0.062500 0.500000
vt 1.000000 0.500000
vt 0.000000 0.500000
vt 0.937500 0.500000
vt 0.875000 0.500000
vt 0.812500 0.500000
vt 0.750000 0.500000
vt 0.625000 0.500000
vt 0.687500 0.500000
vt 0.562500 0.500000
vt 0.500000 0.500000
vt 0.437500 0.500000
vt 0.375000 0.500000
vt 0.312500 0.500000
vt 0.250000 0.500000
vt 0.187500 0.500000
vt 0.125000 0.500000
vt 0.062500 0.500000
vt 0.000000 0.500000
vt 1.000000 0.500000
vt 0.937500 0.500000
vt 0.875000 0.500000
vt 0.812500 0.500000
vt 0.750000 0.500000
s 1
usemtl StickRim
f 5/5/1 38/40/2 6/6/3
f 11/11/4 26/27/5 10/10/6
f 7/7/7 22/23/8 6/6/3
f 16/17/9 31/33/10 15/16/11
f 3/3/12 18/19/13 2/2/14
f 13/14/15 28/29/16 12/13/17
f 9/9/18 24/25/19 8/8/20
f 15/16/11 30/32/21 14/15/22
f 5/5/1 20/21/23 4/4/24
f 1/1/25 32/34/26 16/17/9
f 8/8/20 23/24/27 7/7/7
f 10/10/6 25/26/28 9/9/18
f 4/4/24 19/20/29 3/3/12
f 6/6/3 21/22/30 5/5/1
f 2/2/14 17/18/31 1/1/25
f 12/12/17 27/28/32 11/11/4
f 14/15/22 29/31/33 13/14/15
f 43/45/34 39/41/35 35/37/36
f 14/15/22 45/48/37 46/49/38
f 7/7/7 38/40/2 39/41/35
f 14/15/22 47/50/39 15/16/11
f 8/8/20 39/41/35 40/42/40
f 16/17/9 47/50/39 48/51/41
f 9/9/18 40/42/40 41/43/42
f 2/2/14 34/36/43 33/35/44
f 1/1/25 48/51/41 34/36/43
f 10/10/6 41/43/42 42/44/45
f 2/2/14 35/37/36 3/3/12
f 11/11/4 42/44/45 43/45/34
f 3/3/12 36/38/46 4/4/24
f 11/11/4 44/46/47 12/12/17
f 4/4/24 37/39/48 5/5/1
f 12/13/17 45/48/37 13/14/15
f 5/5/1 37/39/48 38/40/2
f 11/11/4 27/28/32 26/27/5
f 7/7/7 23/24/27 22/23/8
f 16/17/9 32/34/26 31/33/10
f 3/3/12 19/20/29 18/19/13
f 13/14/15 29/31/33 28/29/16
f 9/9/18 25/26/28 24/25/19
f 15/16/11 31/33/10 30/32/21
f 5/5/1 21/22/30 20/21/23
f 1/1/25 17/18/31 32/34/26
f 8/8/20 24/25/19 23/24/27
f 10/10/6 26/27/5 25/26/28
f 4/4/24 20/21/23 19/20/29
f 6/6/3 22/23/8 21/22/30
f 2/2/14 18/19/13 17/18/31
f 12/12/17 28/30/16 27/28/32
f 14/15/22 30/32/21 29/31/33
f 35/37/36 33/35/44 34/36/43
f 34/36/43 48/51/41 47/50/39
f 47/50/39 46/49/38 45/48/37
f 45/48/37 44/46/47 43/45/34
f 43/45/34 42/44/45 41/43/42
f 41/43/42 40/42/40 39/41/35
f 39/41/35 38/40/2 37/39/48
f 37/39/48 36/38/46 35/37/36
f 35/37/36 34/36/43 47/50/39
f 47/50/39 45/48/37 43/45/34
f 43/45/34 41/43/42 39/41/35
f 39/41/35 37/39/48 35/37/36
f 35/37/36 47/50/39 43/45/34
f 14/15/22 13/14/15 45/48/37
f 7/7/7 6/6/3 38/40/2
f 14/15/22 46/49/38 47/50/39
f 8/8/20 7/7/7 39/41/35
f 16/17/9 15/16/11 47/50/39
f 9/9/18 8/8/20 40/42/40
f 2/2/14 1/1/25 34/36/43
f 1/1/25 16/17/9 48/51/41
f 10/10/6 9/9/18 41/43/42
f 2/2/14 33/35/44 35/37/36
f 11/11/4 10/10/6 42/44/45
f 3/3/12 35/37/36 36/38/46
f 11/11/4 43/45/34 44/46/47
f 4/4/24 36/38/46 37/39/48
f 12/13/17 44/47/47 45/48/37
