# Blender 3.5.0
# www.blender.org
mtllib bossSpike.mtl
o 立方体
v 17.000000 -1.000000 -1.000000
v 17.000000 -1.000000 1.000000
v -17.000000 -1.000000 -1.000000
v -17.000000 -1.000000 1.000000
v -16.320000 -1.000000 1.000000
v -15.639999 -1.000000 1.000000
v -14.959999 -1.000000 1.000000
v -14.280000 -1.000000 1.000000
v -13.599999 -1.000000 1.000000
v -12.919999 -1.000000 1.000000
v -12.239999 -1.000000 1.000000
v -11.559999 -1.000000 1.000000
v -10.879998 -1.000000 1.000000
v -10.199998 -1.000000 1.000000
v -9.519998 -1.000000 1.000000
v -8.839996 -1.000000 1.000000
v -8.159996 -1.000000 1.000000
v -7.479997 -1.000000 1.000000
v -6.799996 -1.000000 1.000000
v -6.119997 -1.000000 1.000000
v -5.439997 -1.000000 1.000000
v -4.759997 -1.000000 1.000000
v -4.079997 -1.000000 1.000000
v -3.399997 -1.000000 1.000000
v -2.719998 -1.000000 1.000000
v -2.039998 -1.000000 1.000000
v -1.359998 -1.000000 1.000000
v -0.679998 -1.000000 1.000000
v 0.000002 -1.000000 1.000000
v 0.680002 -1.000000 1.000000
v 1.360002 -1.000000 1.000000
v 2.040002 -1.000000 1.000000
v 2.720001 -1.000000 1.000000
v 3.400002 -1.000000 1.000000
v 4.080002 -1.000000 1.000000
v 4.760001 -1.000000 1.000000
v 5.440001 -1.000000 1.000000
v 6.120001 -1.000000 1.000000
v 6.800001 -1.000000 1.000000
v 7.480000 -1.000000 1.000000
v 8.160000 -1.000000 1.000000
v 8.840000 -1.000000 1.000000
v 9.520000 -1.000000 1.000000
v 10.200001 -1.000000 1.000000
v 10.880001 -1.000000 1.000000
v 11.560001 -1.000000 1.000000
v 12.240002 -1.000000 1.000000
v 12.920000 -1.000000 1.000000
v 13.600000 -1.000000 1.000000
v 14.280001 -1.000000 1.000000
v 14.960001 -1.000000 1.000000
v 15.640001 -1.000000 1.000000
v 16.320000 -1.000000 1.000000
v 16.320000 3.458964 1.000000
v 14.959999 3.458964 1.000000
v 13.599998 3.458964 1.000000
v 12.239998 3.458964 1.000000
v 10.879997 3.458964 1.000000
v 9.519997 3.458964 1.000000
v 8.159996 3.458964 1.000000
v 6.799996 3.458964 1.000000
v 5.439997 3.458964 1.000000
v 4.079997 3.458964 1.000000
v 2.719997 3.458964 1.000000
v 1.359998 3.458964 1.000000
v -0.000003 3.458964 1.000000
v -1.360003 3.458964 1.000000
v -2.720002 3.458964 1.000000
v -4.080002 3.458964 1.000000
v -5.440001 3.458964 1.000000
v -6.800001 3.458964 1.000000
v -8.160002 3.458964 1.000000
v -9.520002 3.458964 1.000000
v -10.880002 3.458964 1.000000
v -12.240003 3.458964 1.000000
v -13.600001 3.458964 1.000000
v -14.960001 3.458964 1.000000
v -16.320000 3.458964 1.000000
v 16.320000 -1.000000 -1.000000
v 15.639999 -1.000000 -1.000000
v 14.959999 -1.000000 -1.000000
v 14.279999 -1.000000 -1.000000
v 13.599998 -1.000000 -1.000000
v 12.919998 -1.000000 -1.000000
v 12.239998 -1.000000 -1.000000
v 11.559998 -1.000000 -1.000000
v 10.879997 -1.000000 -1.000000
v 10.199997 -1.000000 -1.000000
v 9.519997 -1.000000 -1.000000
v 8.839996 -1.000000 -1.000000
v 8.159996 -1.000000 -1.000000
v 7.479996 -1.000000 -1.000000
v 6.799996 -1.000000 -1.000000
v 6.119997 -1.000000 -1.000000
v 5.439997 -1.000000 -1.000000
v 4.759996 -1.000000 -1.000000
v 4.079997 -1.000000 -1.000000
v 3.399998 -1.000000 -1.000000
v 2.719997 -1.000000 -1.000000
v 2.039997 -1.000000 -1.000000
v 1.359998 -1.000000 -1.000000
v 0.679997 -1.000000 -1.000000
v -0.000003 -1.000000 -1.000000
v -0.680002 -1.000000 -1.000000
v -1.360003 -1.000000 -1.000000
v -2.040002 -1.000000 -1.000000
v -2.720002 -1.000000 -1.000000
v -3.400002 -1.000000 -1.000000
v -4.080002 -1.000000 -1.000000
v -4.760001 -1.000000 -1.000000
v -5.440001 -1.000000 -1.000000
v -6.120001 -1.000000 -1.000000
v -6.800001 -1.000000 -1.000000
v -7.480000 -1.000000 -1.000000
v -8.160002 -1.000000 -1.000000
v -8.840002 -1.000000 -1.000000
v -9.520002 -1.000000 -1.000000
v -10.200003 -1.000000 -1.000000
v -10.880002 -1.000000 -1.000000
v -11.560002 -1.000000 -1.000000
v -12.240003 -1.000000 -1.000000
v -12.920002 -1.000000 -1.000000
v -13.600001 -1.000000 -1.000000
v -14.280002 -1.000000 -1.000000
v -14.960001 -1.000000 -1.000000
v -15.640001 -1.000000 -1.000000
v -16.320000 -1.000000 -1.000000
v -16.320000 3.458964 -1.000000
v -14.959999 3.458964 -1.000000
v -13.599999 3.458964 -1.000000
v -12.239999 3.458964 -1.000000
v -10.879998 3.458964 -1.000000
v -9.519998 3.458964 -1.000000
v -8.159996 3.458964 -1.000000
v -6.799996 3.458964 -1.000000
v -5.439997 3.458964 -1.000000
v -4.079997 3.458964 -1.000000
v -2.719998 3.458964 -1.000000
v -1.359998 3.458964 -1.000000
v 0.000002 3.458964 -1.000000
v 1.360002 3.458964 -1.000000
v 2.720001 3.458964 -1.000000
v 4.080002 3.458964 -1.000000
v 5.440001 3.458964 -1.000000
v 6.800001 3.458964 -1.000000
v 8.160000 3.458964 -1.000000
v 9.520000 3.458964 -1.000000
v 10.880001 3.458964 -1.000000
v 12.240002 3.458964 -1.000000
v 13.600000 3.458964 -1.000000
v 14.960001 3.458964 -1.000000
v 16.320000 3.458964 -1.000000
vn -0.0000 -0.0000 1.0000
vn -0.0000 -0.0000 -1.0000
vn -0.0000 -1.0000 -0.0000
vn 0.9886 0.1508 -0.0000
vn -0.9886 0.1508 -0.0000
vt 0.269531 0.753906
vt 0.769531 0.503906
vt 0.019531 0.503906
vt 0.019531 0.253906
vt 0.519531 0.003906
vt 0.769531 0.253906
vt 0.269531 0.503906
vt 0.519531 0.503906
vt 0.519531 0.253906
vt 0.269531 0.253906
vt 0.269531 0.248906
vt 0.264531 0.253906
vt 0.269531 0.243906
vt 0.519531 0.243906
vt 0.529531 0.253906
vt 0.259531 0.253906
vt 0.269531 0.238906
vt 0.254531 0.253906
vt 0.269531 0.233906
vt 0.519531 0.233906
vt 0.539531 0.253906
vt 0.249531 0.253906
vt 0.269531 0.228906
vt 0.244531 0.253906
vt 0.269531 0.223906
vt 0.519531 0.223906
vt 0.549531 0.253906
vt 0.239531 0.253906
vt 0.269531 0.218906
vt 0.234531 0.253906
vt 0.269531 0.213906
vt 0.519531 0.213906
vt 0.559531 0.253906
vt 0.229531 0.253906
vt 0.269531 0.208906
vt 0.224531 0.253906
vt 0.269531 0.203906
vt 0.519531 0.203906
vt 0.569531 0.253906
vt 0.219531 0.253906
vt 0.269531 0.198906
vt 0.214531 0.253906
vt 0.269531 0.193906
vt 0.519531 0.193906
vt 0.579531 0.253906
vt 0.209531 0.253906
vt 0.269531 0.188906
vt 0.204531 0.253906
vt 0.269531 0.183906
vt 0.519531 0.183906
vt 0.589531 0.253906
vt 0.199531 0.253906
vt 0.269531 0.178906
vt 0.194531 0.253906
vt 0.269531 0.173906
vt 0.519531 0.173906
vt 0.599531 0.253906
vt 0.189531 0.253906
vt 0.269531 0.168906
vt 0.184531 0.253906
vt 0.269531 0.163906
vt 0.519531 0.163906
vt 0.609531 0.253906
vt 0.179531 0.253906
vt 0.269531 0.158906
vt 0.174531 0.253906
vt 0.269531 0.153906
vt 0.519531 0.153906
vt 0.619531 0.253906
vt 0.169531 0.253906
vt 0.269531 0.148906
vt 0.164531 0.253906
vt 0.269531 0.143906
vt 0.519531 0.143906
vt 0.629531 0.253906
vt 0.159531 0.253906
vt 0.269531 0.138906
vt 0.154531 0.253906
vt 0.269531 0.133906
vt 0.519531 0.133906
vt 0.639531 0.253906
vt 0.149531 0.253906
vt 0.269531 0.128906
vt 0.144531 0.253906
vt 0.269531 0.123906
vt 0.519531 0.123906
vt 0.649531 0.253906
vt 0.139531 0.253906
vt 0.269531 0.118906
vt 0.134531 0.253906
vt 0.269531 0.113906
vt 0.519531 0.113906
vt 0.659531 0.253906
vt 0.129531 0.253906
vt 0.269531 0.108906
vt 0.124531 0.253906
vt 0.269531 0.103906
vt 0.519531 0.103906
vt 0.669531 0.253906
vt 0.119531 0.253906
vt 0.269531 0.098906
vt 0.114531 0.253906
vt 0.269531 0.093906
vt 0.519531 0.093906
vt 0.679531 0.253906
vt 0.109531 0.253906
vt 0.269531 0.088906
vt 0.104531 0.253906
vt 0.269531 0.083906
vt 0.519531 0.083906
vt 0.689531 0.253906
vt 0.099531 0.253906
vt 0.269531 0.078906
vt 0.094531 0.253906
vt 0.269531 0.073906
vt 0.519531 0.073906
vt 0.699531 0.253906
vt 0.089531 0.253906
vt 0.269531 0.068906
vt 0.084531 0.253906
vt 0.269531 0.063906
vt 0.519531 0.063906
vt 0.709531 0.253906
vt 0.079531 0.253906
vt 0.269531 0.058906
vt 0.074531 0.253906
vt 0.269531 0.053906
vt 0.519531 0.053906
vt 0.719531 0.253906
vt 0.069531 0.253906
vt 0.269531 0.048906
vt 0.064531 0.253906
vt 0.269531 0.043906
vt 0.519531 0.043906
vt 0.729531 0.253906
vt 0.059531 0.253906
vt 0.269531 0.038906
vt 0.054531 0.253906
vt 0.269531 0.033906
vt 0.519531 0.033906
vt 0.739531 0.253906
vt 0.049531 0.253906
vt 0.269531 0.028906
vt 0.044531 0.253906
vt 0.269531 0.023906
vt 0.519531 0.023906
vt 0.749531 0.253906
vt 0.039531 0.253906
vt 0.269531 0.018906
vt 0.034531 0.253906
vt 0.269531 0.013906
vt 0.519531 0.013906
vt 0.759531 0.253906
vt 0.029531 0.253906
vt 0.269531 0.008906
vt 0.024531 0.253906
vt 0.519531 0.008906
vt 0.764531 0.253906
vt 0.519531 0.018906
vt 0.754531 0.253906
vt 0.519531 0.028906
vt 0.744531 0.253906
vt 0.519531 0.038906
vt 0.734531 0.253906
vt 0.519531 0.048906
vt 0.724531 0.253906
vt 0.519531 0.058906
vt 0.714531 0.253906
vt 0.519531 0.068906
vt 0.704531 0.253906
vt 0.519531 0.078906
vt 0.694531 0.253906
vt 0.519531 0.088906
vt 0.684531 0.253906
vt 0.519531 0.098906
vt 0.674531 0.253906
vt 0.519531 0.108906
vt 0.664531 0.253906
vt 0.519531 0.118906
vt 0.654531 0.253906
vt 0.519531 0.128906
vt 0.644531 0.253906
vt 0.519531 0.138906
vt 0.634531 0.253906
vt 0.519531 0.148906
vt 0.624531 0.253906
vt 0.519531 0.158906
vt 0.614531 0.253906
vt 0.519531 0.168906
vt 0.604531 0.253906
vt 0.519531 0.178906
vt 0.594531 0.253906
vt 0.519531 0.188906
vt 0.584531 0.253906
vt 0.519531 0.198906
vt 0.574531 0.253906
vt 0.519531 0.208906
vt 0.564531 0.253906
vt 0.519531 0.218906
vt 0.554531 0.253906
vt 0.519531 0.228906
vt 0.544531 0.253906
vt 0.519531 0.238906
vt 0.534531 0.253906
vt 0.519531 0.248906
vt 0.524531 0.253906
vt 0.269531 0.748906
vt 0.024531 0.503906
vt 0.269531 0.743906
vt 0.519531 0.743906
vt 0.759531 0.503906
vt 0.029531 0.503906
vt 0.269531 0.738906
vt 0.034531 0.503906
vt 0.269531 0.733906
vt 0.519531 0.733906
vt 0.749531 0.503906
vt 0.039531 0.503906
vt 0.269531 0.728906
vt 0.044531 0.503906
vt 0.269531 0.723906
vt 0.519531 0.723906
vt 0.739531 0.503906
vt 0.049531 0.503906
vt 0.269531 0.718906
vt 0.054531 0.503906
vt 0.269531 0.713906
vt 0.519531 0.713906
vt 0.729531 0.503906
vt 0.059531 0.503906
vt 0.269531 0.708906
vt 0.064531 0.503906
vt 0.269531 0.703906
vt 0.519531 0.703906
vt 0.719531 0.503906
vt 0.069531 0.503906
vt 0.269531 0.698906
vt 0.074531 0.503906
vt 0.269531 0.693906
vt 0.519531 0.693906
vt 0.709531 0.503906
vt 0.079531 0.503906
vt 0.269531 0.688906
vt 0.084531 0.503906
vt 0.269531 0.683906
vt 0.519531 0.683906
vt 0.699531 0.503906
vt 0.089531 0.503906
vt 0.269531 0.678906
vt 0.094531 0.503906
vt 0.269531 0.673906
vt 0.519531 0.673906
vt 0.689531 0.503906
vt 0.099531 0.503906
vt 0.269531 0.668906
vt 0.104531 0.503906
vt 0.269531 0.663906
vt 0.519531 0.663906
vt 0.679531 0.503906
vt 0.109531 0.503906
vt 0.269531 0.658906
vt 0.114531 0.503906
vt 0.269531 0.653906
vt 0.519531 0.653906
vt 0.669531 0.503906
vt 0.119531 0.503906
vt 0.269531 0.648906
vt 0.124531 0.503906
vt 0.269531 0.643906
vt 0.519531 0.643906
vt 0.659531 0.503906
vt 0.129531 0.503906
vt 0.269531 0.638906
vt 0.134531 0.503906
vt 0.269531 0.633906
vt 0.519531 0.633906
vt 0.649531 0.503906
vt 0.139531 0.503906
vt 0.269531 0.628906
vt 0.144531 0.503906
vt 0.269531 0.623906
vt 0.519531 0.623906
vt 0.639531 0.503906
vt 0.149531 0.503906
vt 0.269531 0.618906
vt 0.154531 0.503906
vt 0.269531 0.613906
vt 0.519531 0.613906
vt 0.629531 0.503906
vt 0.159531 0.503906
vt 0.269531 0.608906
vt 0.164531 0.503906
vt 0.269531 0.603906
vt 0.519531 0.603906
vt 0.619531 0.503906
vt 0.169531 0.503906
vt 0.269531 0.598906
vt 0.174531 0.503906
vt 0.269531 0.593906
vt 0.519531 0.593906
vt 0.609531 0.503906
vt 0.179531 0.503906
vt 0.269531 0.588906
vt 0.184531 0.503906
vt 0.269531 0.583906
vt 0.519531 0.583906
vt 0.599531 0.503906
vt 0.189531 0.503906
vt 0.269531 0.578906
vt 0.194531 0.503906
vt 0.269531 0.573906
vt 0.519531 0.573906
vt 0.589531 0.503906
vt 0.199531 0.503906
vt 0.269531 0.568906
vt 0.204531 0.503906
vt 0.269531 0.563906
vt 0.519531 0.563906
vt 0.579531 0.503906
vt 0.209531 0.503906
vt 0.269531 0.558906
vt 0.214531 0.503906
vt 0.269531 0.553906
vt 0.519531 0.553906
vt 0.569531 0.503906
vt 0.219531 0.503906
vt 0.269531 0.548906
vt 0.224531 0.503906
vt 0.269531 0.543906
vt 0.519531 0.543906
vt 0.559531 0.503906
vt 0.229531 0.503906
vt 0.269531 0.538906
vt 0.234531 0.503906
vt 0.269531 0.533906
vt 0.519531 0.533906
vt 0.549531 0.503906
vt 0.239531 0.503906
vt 0.269531 0.528906
vt 0.244531 0.503906
vt 0.269531 0.523906
vt 0.519531 0.523906
vt 0.539531 0.503906
vt 0.249531 0.503906
vt 0.269531 0.518906
vt 0.254531 0.503906
vt 0.269531 0.513906
vt 0.519531 0.513906
vt 0.529531 0.503906
vt 0.259531 0.503906
vt 0.269531 0.508906
vt 0.264531 0.503906
vt 0.519531 0.508906
vt 0.524531 0.503906
vt 0.519531 0.518906
vt 0.534531 0.503906
vt 0.519531 0.528906
vt 0.544531 0.503906
vt 0.519531 0.538906
vt 0.554531 0.503906
vt 0.519531 0.548906
vt 0.564531 0.503906
vt 0.519531 0.558906
vt 0.574531 0.503906
vt 0.519531 0.568906
vt 0.584531 0.503906
vt 0.519531 0.578906
vt 0.594531 0.503906
vt 0.519531 0.588906
vt 0.604531 0.503906
vt 0.519531 0.598906
vt 0.614531 0.503906
vt 0.519531 0.608906
vt 0.624531 0.503906
vt 0.519531 0.618906
vt 0.634531 0.503906
vt 0.519531 0.628906
vt 0.644531 0.503906
vt 0.519531 0.638906
vt 0.654531 0.503906
vt 0.519531 0.648906
vt 0.664531 0.503906
vt 0.519531 0.658906
vt 0.674531 0.503906
vt 0.519531 0.668906
vt 0.684531 0.503906
vt 0.519531 0.678906
vt 0.694531 0.503906
vt 0.519531 0.688906
vt 0.704531 0.503906
vt 0.519531 0.698906
vt 0.714531 0.503906
vt 0.519531 0.708906
vt 0.724531 0.503906
vt 0.519531 0.718906
vt 0.734531 0.503906
vt 0.519531 0.728906
vt 0.744531 0.503906
vt 0.519531 0.738906
vt 0.754531 0.503906
vt 0.519531 0.748906
vt 0.764531 0.503906
s 0
usemtl マテリアル
f 5/11/1 78/205/1 4/10/1
f 79/207/2 152/401/2 1/1/2
f 4/10/3 127/352/3 5/12/3
f 2/6/4 152/402/4 54/158/4
f 78/206/5 3/8/5 4/9/5
f 78/206/4 126/349/4 128/354/4
f 77/204/5 126/349/5 6/15/5
f 8/21/4 129/356/4 77/204/4
f 76/202/5 124/343/5 8/21/5
f 76/202/4 122/337/4 130/358/4
f 75/200/5 122/337/5 10/27/5
f 12/33/4 131/360/4 75/200/4
f 74/198/5 120/331/5 12/33/5
f 74/198/4 118/325/4 132/362/4
f 73/196/5 118/325/5 14/39/5
f 16/45/4 133/364/4 73/196/4
f 72/194/5 116/319/5 16/45/5
f 72/194/4 114/313/4 134/366/4
f 71/192/5 114/313/5 18/51/5
f 20/57/4 135/368/4 71/192/4
f 70/190/5 112/307/5 20/57/5
f 22/63/4 136/370/4 70/190/4
f 69/188/5 110/301/5 22/63/5
f 24/69/4 137/372/4 69/188/4
f 68/186/5 108/295/5 24/69/5
f 26/75/4 138/374/4 68/186/4
f 67/184/5 106/289/5 26/75/5
f 28/81/4 139/376/4 67/184/4
f 66/182/5 104/283/5 28/81/5
f 66/182/4 102/277/4 140/378/4
f 65/180/5 102/277/5 30/87/5
f 65/180/4 100/271/4 141/380/4
f 32/93/5 142/382/5 100/271/5
f 64/178/4 98/265/4 142/382/4
f 63/176/5 98/265/5 34/99/5
f 36/105/4 143/384/4 63/176/4
f 62/174/5 96/259/5 36/105/5
f 62/174/4 94/253/4 144/386/4
f 61/172/5 94/253/5 38/111/5
f 40/117/4 145/388/4 61/172/4
f 60/170/5 92/247/5 40/117/5
f 60/170/4 90/241/4 146/390/4
f 59/168/5 90/241/5 42/123/5
f 59/168/4 88/235/4 147/392/4
f 58/166/5 88/235/5 44/129/5
f 58/166/4 86/229/4 148/394/4
f 57/164/5 86/229/5 46/135/5
f 48/141/4 149/396/4 57/164/4
f 56/162/5 84/223/5 48/141/5
f 56/162/4 82/217/4 150/398/4
f 55/160/5 82/217/5 50/147/5
f 55/160/4 80/211/4 151/400/4
f 52/153/5 152/402/5 80/211/5
f 53/156/3 1/3/3 2/4/3
f 52/154/3 79/208/3 53/156/3
f 51/150/3 80/212/3 52/154/3
f 50/148/3 81/214/3 51/150/3
f 49/144/3 82/218/3 50/148/3
f 48/142/3 83/220/3 49/144/3
f 47/138/3 84/224/3 48/142/3
f 46/136/3 85/226/3 47/138/3
f 45/132/3 86/230/3 46/136/3
f 44/130/3 87/232/3 45/132/3
f 43/126/3 88/236/3 44/130/3
f 42/124/3 89/238/3 43/126/3
f 41/120/3 90/242/3 42/124/3
f 40/118/3 91/244/3 41/120/3
f 39/114/3 92/248/3 40/118/3
f 38/112/3 93/250/3 39/114/3
f 37/108/3 94/254/3 38/112/3
f 36/106/3 95/256/3 37/108/3
f 35/102/3 96/260/3 36/106/3
f 34/100/3 97/262/3 35/102/3
f 33/96/3 98/266/3 34/100/3
f 32/94/3 99/268/3 33/96/3
f 31/90/3 100/272/3 32/94/3
f 30/88/3 101/274/3 31/90/3
f 29/84/3 102/278/3 30/88/3
f 28/82/3 103/280/3 29/84/3
f 27/78/3 104/284/3 28/82/3
f 26/76/3 105/286/3 27/78/3
f 25/72/3 106/290/3 26/76/3
f 24/70/3 107/292/3 25/72/3
f 23/66/3 108/296/3 24/70/3
f 22/64/3 109/298/3 23/66/3
f 21/60/3 110/302/3 22/64/3
f 20/58/3 111/304/3 21/60/3
f 19/54/3 112/308/3 20/58/3
f 18/52/3 113/310/3 19/54/3
f 17/48/3 114/314/3 18/52/3
f 16/46/3 115/316/3 17/48/3
f 15/42/3 116/320/3 16/46/3
f 14/40/3 117/322/3 15/42/3
f 13/36/3 118/326/3 14/40/3
f 12/34/3 119/328/3 13/36/3
f 11/30/3 120/332/3 12/34/3
f 10/28/3 121/334/3 11/30/3
f 9/24/3 122/338/3 10/28/3
f 8/22/3 123/340/3 9/24/3
f 7/18/3 124/344/3 8/22/3
f 6/16/3 125/346/3 7/18/3
f 5/12/3 126/350/3 6/16/3
f 3/8/2 128/353/2 127/351/2
f 127/351/2 128/353/2 126/347/2
f 126/348/2 129/355/2 125/345/2
f 125/345/2 129/355/2 124/341/2
f 124/342/2 130/357/2 123/339/2
f 123/339/2 130/357/2 122/335/2
f 122/336/2 131/359/2 121/333/2
f 121/333/2 131/359/2 120/329/2
f 120/330/2 132/361/2 119/327/2
f 119/327/2 132/361/2 118/323/2
f 118/324/2 133/363/2 117/321/2
f 117/321/2 133/363/2 116/317/2
f 116/318/2 134/365/2 115/315/2
f 115/315/2 134/365/2 114/311/2
f 114/312/2 135/367/2 113/309/2
f 113/309/2 135/367/2 112/305/2
f 112/306/2 136/369/2 111/303/2
f 111/303/2 136/369/2 110/299/2
f 110/300/2 137/371/2 109/297/2
f 109/297/2 137/371/2 108/293/2
f 108/294/2 138/373/2 107/291/2
f 107/291/2 138/373/2 106/287/2
f 106/288/2 139/375/2 105/285/2
f 105/285/2 139/375/2 104/281/2
f 104/282/2 140/377/2 103/279/2
f 103/279/2 140/377/2 102/275/2
f 102/276/2 141/379/2 101/273/2
f 101/273/2 141/379/2 100/269/2
f 100/270/2 142/381/2 99/267/2
f 99/267/2 142/381/2 98/263/2
f 98/264/2 143/383/2 97/261/2
f 97/261/2 143/383/2 96/257/2
f 96/258/2 144/385/2 95/255/2
f 95/255/2 144/385/2 94/251/2
f 94/252/2 145/387/2 93/249/2
f 93/249/2 145/387/2 92/245/2
f 92/246/2 146/389/2 91/243/2
f 91/243/2 146/389/2 90/239/2
f 90/240/2 147/391/2 89/237/2
f 89/237/2 147/391/2 88/233/2
f 88/234/2 148/393/2 87/231/2
f 87/231/2 148/393/2 86/227/2
f 86/228/2 149/395/2 85/225/2
f 85/225/2 149/395/2 84/221/2
f 84/222/2 150/397/2 83/219/2
f 83/219/2 150/397/2 82/215/2
f 82/216/2 151/399/2 81/213/2
f 81/213/2 151/399/2 80/209/2
f 80/210/2 152/401/2 79/207/2
f 2/5/1 54/157/1 53/155/1
f 53/155/1 54/157/1 52/151/1
f 52/152/1 55/159/1 51/149/1
f 51/149/1 55/159/1 50/145/1
f 50/146/1 56/161/1 49/143/1
f 49/143/1 56/161/1 48/139/1
f 48/140/1 57/163/1 47/137/1
f 47/137/1 57/163/1 46/133/1
f 46/134/1 58/165/1 45/131/1
f 45/131/1 58/165/1 44/127/1
f 44/128/1 59/167/1 43/125/1
f 43/125/1 59/167/1 42/121/1
f 42/122/1 60/169/1 41/119/1
f 41/119/1 60/169/1 40/115/1
f 40/116/1 61/171/1 39/113/1
f 39/113/1 61/171/1 38/109/1
f 38/110/1 62/173/1 37/107/1
f 37/107/1 62/173/1 36/103/1
f 36/104/1 63/175/1 35/101/1
f 35/101/1 63/175/1 34/97/1
f 34/98/1 64/177/1 33/95/1
f 33/95/1 64/177/1 32/91/1
f 32/92/1 65/179/1 31/89/1
f 31/89/1 65/179/1 30/85/1
f 30/86/1 66/181/1 29/83/1
f 29/83/1 66/181/1 28/79/1
f 28/80/1 67/183/1 27/77/1
f 27/77/1 67/183/1 26/73/1
f 26/74/1 68/185/1 25/71/1
f 25/71/1 68/185/1 24/67/1
f 24/68/1 69/187/1 23/65/1
f 23/65/1 69/187/1 22/61/1
f 22/62/1 70/189/1 21/59/1
f 21/59/1 70/189/1 20/55/1
f 20/56/1 71/191/1 19/53/1
f 19/53/1 71/191/1 18/49/1
f 18/50/1 72/193/1 17/47/1
f 17/47/1 72/193/1 16/43/1
f 16/44/1 73/195/1 15/41/1
f 15/41/1 73/195/1 14/37/1
f 14/38/1 74/197/1 13/35/1
f 13/35/1 74/197/1 12/31/1
f 12/32/1 75/199/1 11/29/1
f 11/29/1 75/199/1 10/25/1
f 10/26/1 76/201/1 9/23/1
f 9/23/1 76/201/1 8/19/1
f 8/20/1 77/203/1 7/17/1
f 7/17/1 77/203/1 6/13/1
f 6/14/1 78/205/1 5/11/1
f 4/10/3 3/7/3 127/352/3
f 2/6/4 1/2/4 152/402/4
f 78/206/5 128/354/5 3/8/5
f 78/206/4 6/15/4 126/349/4
f 77/204/5 129/356/5 126/349/5
f 8/21/4 124/343/4 129/356/4
f 76/202/5 130/358/5 124/343/5
f 76/202/4 10/27/4 122/337/4
f 75/200/5 131/360/5 122/337/5
f 12/33/4 120/331/4 131/360/4
f 74/198/5 132/362/5 120/331/5
f 74/198/4 14/39/4 118/325/4
f 73/196/5 133/364/5 118/325/5
f 16/45/4 116/319/4 133/364/4
f 72/194/5 134/366/5 116/319/5
f 72/194/4 18/51/4 114/313/4
f 71/192/5 135/368/5 114/313/5
f 20/57/4 112/307/4 135/368/4
f 70/190/5 136/370/5 112/307/5
f 22/63/4 110/301/4 136/370/4
f 69/188/5 137/372/5 110/301/5
f 24/69/4 108/295/4 137/372/4
f 68/186/5 138/374/5 108/295/5
f 26/75/4 106/289/4 138/374/4
f 67/184/5 139/376/5 106/289/5
f 28/81/4 104/283/4 139/376/4
f 66/182/5 140/378/5 104/283/5
f 66/182/4 30/87/4 102/277/4
f 65/180/5 141/380/5 102/277/5
f 65/180/4 32/93/4 100/271/4
f 32/93/5 64/178/5 142/382/5
f 64/178/4 34/99/4 98/265/4
f 63/176/5 143/384/5 98/265/5
f 36/105/4 96/259/4 143/384/4
f 62/174/5 144/386/5 96/259/5
f 62/174/4 38/111/4 94/253/4
f 61/172/5 145/388/5 94/253/5
f 40/117/4 92/247/4 145/388/4
f 60/170/5 146/390/5 92/247/5
f 60/170/4 42/123/4 90/241/4
f 59/168/5 147/392/5 90/241/5
f 59/168/4 44/129/4 88/235/4
f 58/166/5 148/394/5 88/235/5
f 58/166/4 46/135/4 86/229/4
f 57/164/5 149/396/5 86/229/5
f 48/141/4 84/223/4 149/396/4
f 56/162/5 150/398/5 84/223/5
f 56/162/4 50/147/4 82/217/4
f 55/160/5 151/400/5 82/217/5
f 55/160/4 52/153/4 80/211/4
f 52/153/5 54/158/5 152/402/5
f 53/156/3 79/208/3 1/3/3
f 52/154/3 80/212/3 79/208/3
f 51/150/3 81/214/3 80/212/3
f 50/148/3 82/218/3 81/214/3
f 49/144/3 83/220/3 82/218/3
f 48/142/3 84/224/3 83/220/3
f 47/138/3 85/226/3 84/224/3
f 46/136/3 86/230/3 85/226/3
f 45/132/3 87/232/3 86/230/3
f 44/130/3 88/236/3 87/232/3
f 43/126/3 89/238/3 88/236/3
f 42/124/3 90/242/3 89/238/3
f 41/120/3 91/244/3 90/242/3
f 40/118/3 92/248/3 91/244/3
f 39/114/3 93/250/3 92/248/3
f 38/112/3 94/254/3 93/250/3
f 37/108/3 95/256/3 94/254/3
f 36/106/3 96/260/3 95/256/3
f 35/102/3 97/262/3 96/260/3
f 34/100/3 98/266/3 97/262/3
f 33/96/3 99/268/3 98/266/3
f 32/94/3 100/272/3 99/268/3
f 31/90/3 101/274/3 100/272/3
f 30/88/3 102/278/3 101/274/3
f 29/84/3 103/280/3 102/278/3
f 28/82/3 104/284/3 103/280/3
f 27/78/3 105/286/3 104/284/3
f 26/76/3 106/290/3 105/286/3
f 25/72/3 107/292/3 106/290/3
f 24/70/3 108/296/3 107/292/3
f 23/66/3 109/298/3 108/296/3
f 22/64/3 110/302/3 109/298/3
f 21/60/3 111/304/3 110/302/3
f 20/58/3 112/308/3 111/304/3
f 19/54/3 113/310/3 112/308/3
f 18/52/3 114/314/3 113/310/3
f 17/48/3 115/316/3 114/314/3
f 16/46/3 116/320/3 115/316/3
f 15/42/3 117/322/3 116/320/3
f 14/40/3 118/326/3 117/322/3
f 13/36/3 119/328/3 118/326/3
f 12/34/3 120/332/3 119/328/3
f 11/30/3 121/334/3 120/332/3
f 10/28/3 122/338/3 121/334/3
f 9/24/3 123/340/3 122/338/3
f 8/22/3 124/344/3 123/340/3
f 7/18/3 125/346/3 124/344/3
f 6/16/3 126/350/3 125/346/3
f 5/12/3 127/352/3 126/350/3
