# Blender 3.5.0
# www.blender.org
mtllib head.mtl
o Head
v 1.038539 -1.043599 -1.064909
v 1.038539 -1.043599 1.022289
v -1.048659 -1.043599 -1.064909
v -1.048659 -1.043599 1.022289
v 1.038539 1.043599 -1.064909
v 1.038539 1.043599 1.022289
v -1.048659 1.043599 -1.064909
v -1.048659 1.043599 1.022289
v -0.623629 -1.043599 -1.064909
v -0.206190 -1.043599 -1.064909
v 0.211250 -1.043599 -1.064909
v 0.628689 -1.043599 -1.064909
v 0.628689 -1.043599 1.022289
v 0.211250 -1.043599 1.022289
v -0.206190 -1.043599 1.022289
v -0.623629 -1.043599 1.022289
v 0.628689 1.043599 -1.064909
v 0.211250 1.043599 -1.064909
v -0.206190 1.043599 -1.064909
v -0.623630 1.043599 -1.064909
v -0.623630 1.043599 1.405869
v -0.206190 1.043599 1.022289
v 0.211250 1.043599 1.022289
v 0.628689 1.043599 1.405869
v -1.048659 0.000000 -1.064909
v -1.048659 0.000000 1.022289
v 1.038539 0.000000 -1.064909
v 1.038539 0.000000 1.022289
v -0.623629 0.000000 1.022289
v -0.206190 0.000000 1.022289
v 0.211250 0.000000 1.022289
v 0.628689 0.000000 1.022289
v -0.623629 0.000000 -1.064909
v -0.206190 0.000000 -1.064909
v 0.211250 0.000000 -1.064909
v 0.628689 0.000000 -1.064909
vn -0.0000 -1.0000 -0.0000
vn -1.0000 -0.0000 -0.0000
vn -0.0000 1.0000 -0.0000
vn 1.0000 -0.0000 -0.0000
vn -0.0000 -0.0000 -1.0000
vn -0.0000 -0.0000 1.0000
vn -0.6531 -0.2612 0.7108
vn 0.6531 -0.2612 0.7108
vn -0.6464 -0.2632 0.7162
vn 0.6600 -0.2592 0.7052
vt 0.664381 0.667809
vt 0.332191 0.393240
vt 0.332191 0.335619
vt 0.332191 0.667809
vt 0.664381 0.000030
vt 0.664381 1.000000
vt 0.332191 0.725430
vt 0.996572 0.000000
vt 0.332191 0.667809
vt 0.332191 1.000000
vt 0.332191 0.000000
vt 0.996571 0.332191
vt 0.000000 0.000000
vt 0.664381 0.335619
vt 0.000000 0.393240
vt 0.000000 0.332191
vt 0.664381 0.331438
vt 0.664381 0.667809
vt 0.332191 0.000000
vt 0.664381 0.000000
vt 0.000000 0.725430
vt 0.664381 0.332191
vt 0.332191 0.332191
vt 0.332191 0.331409
vt 0.399837 0.667809
vt 0.332191 0.657784
vt 0.466275 0.667809
vt 0.332191 0.591346
vt 0.332191 0.524908
vt 0.532713 0.667809
vt 0.599151 0.667809
vt 0.332191 0.458470
vt 0.599151 0.000024
vt 0.599151 1.000000
vt 0.532713 0.000018
vt 0.532713 1.000000
vt 0.466275 0.000012
vt 0.466275 1.000000
vt 0.399837 0.000006
vt 0.399837 1.000000
vt 0.000000 0.458470
vt 0.065230 0.000000
vt 0.000000 0.524908
vt 0.131668 0.000000
vt 0.198106 0.000000
vt 0.000000 0.591346
vt 0.000000 0.657784
vt 0.264545 0.000000
vt 0.399757 0.335601
vt 0.264545 0.393240
vt 0.198106 0.332191
vt 0.466275 0.331421
vt 0.131668 0.332191
vt 0.532713 0.331426
vt 0.599072 0.335619
vt 0.065230 0.393240
vt 0.166095 0.725430
vt 0.830476 0.000000
vt 0.332191 0.165704
vt 0.830476 0.332191
vt 0.166095 0.393240
vt 0.498286 0.335619
vt 0.664381 0.165734
vt 0.498286 0.667809
vt 0.399837 0.165710
vt 0.466275 0.165716
vt 0.532713 0.165722
vt 0.599151 0.165728
vt 0.166095 0.657784
vt 0.166095 0.591346
vt 0.166095 0.524908
vt 0.166095 0.458470
s 0
usemtl マテリアル
f 16/40/1 3/9/1 9/25/1
f 26/60/2 7/20/2 25/58/2
f 17/42/3 6/16/3 5/13/3
f 28/64/4 1/3/4 27/62/4
f 36/72/5 5/15/5 27/61/5
f 13/33/6 28/63/6 32/68/6
f 4/11/6 29/65/6 26/59/6
f 29/65/6 15/37/6 30/66/6
f 15/37/6 31/67/6 30/66/6
f 14/35/6 32/68/6 31/67/6
f 7/21/5 33/69/5 25/57/5
f 20/47/5 34/70/5 33/69/5
f 19/46/5 35/71/5 34/70/5
f 35/71/5 17/41/5 36/72/5
f 8/23/3 20/48/3 7/19/3
f 20/48/3 22/51/3 19/45/3
f 22/51/3 18/44/3 19/45/3
f 23/53/3 17/42/3 18/44/3
f 2/6/1 12/31/1 1/1/1
f 13/34/1 11/30/1 12/31/1
f 14/36/1 10/27/1 11/30/1
f 15/38/1 9/25/1 10/27/1
f 35/71/5 12/32/5 11/29/5
f 10/28/5 35/71/5 11/29/5
f 33/69/5 10/28/5 9/26/5
f 25/57/5 9/26/5 3/7/5
f 23/54/7 32/68/7 24/55/7
f 30/66/6 23/54/6 22/52/6
f 29/65/8 22/52/8 21/49/8
f 8/24/9 29/65/9 21/49/9
f 32/68/10 6/17/10 24/55/10
f 12/32/5 27/61/5 1/2/5
f 6/18/4 27/62/4 5/14/4
f 4/12/2 25/58/2 3/8/2
f 16/40/1 4/10/1 3/9/1
f 26/60/2 8/22/2 7/20/2
f 17/42/3 24/56/3 6/16/3
f 28/64/4 2/4/4 1/3/4
f 36/72/5 17/41/5 5/15/5
f 13/33/6 2/5/6 28/63/6
f 4/11/6 16/39/6 29/65/6
f 29/65/6 16/39/6 15/37/6
f 15/37/6 14/35/6 31/67/6
f 14/35/6 13/33/6 32/68/6
f 7/21/5 20/47/5 33/69/5
f 20/47/5 19/46/5 34/70/5
f 19/46/5 18/43/5 35/71/5
f 35/71/5 18/43/5 17/41/5
f 8/23/3 21/50/3 20/48/3
f 20/48/3 21/50/3 22/51/3
f 22/51/3 23/53/3 18/44/3
f 23/53/3 24/56/3 17/42/3
f 2/6/1 13/34/1 12/31/1
f 13/34/1 14/36/1 11/30/1
f 14/36/1 15/38/1 10/27/1
f 15/38/1 16/40/1 9/25/1
f 35/71/5 36/72/5 12/32/5
f 10/28/5 34/70/5 35/71/5
f 33/69/5 34/70/5 10/28/5
f 25/57/5 33/69/5 9/26/5
f 23/54/6 31/67/6 32/68/6
f 30/66/6 31/67/6 23/54/6
f 29/65/6 30/66/6 22/52/6
f 8/24/6 26/59/6 29/65/6
f 32/68/6 28/63/6 6/17/6
f 12/32/5 36/72/5 27/61/5
f 6/18/4 28/64/4 27/62/4
f 4/12/2 26/60/2 25/58/2
